<svg id="Layer_1" data-name="Layer 1" xmlns="http://www.w3.org/2000/svg" viewBox="0 0 1000 1000"><defs><style>.cls-1{fill:#fff;}</style></defs><title>skull</title><path d="M507.2,849.31c-15.6-.9-31.29-1.07-46.78-2.93A64.65,64.65,0,0,1,428,833a633.85,633.85,0,0,1-71.59-67.19c-9.55-10.4-18.78-21.15-27.42-32.32-7.5-9.7-15.45-19.69-16.69-32.41-.73-7.48.31-15.29,1.57-22.78,2.94-17.46,2.41-34.94.15-52.26a88.15,88.15,0,0,0-8.11-25.86c-2.09-4.4-7.19-7.81-11.61-10.57-14-8.75-24.29-21.15-34.17-33.93-4-5.14-6.46-11.38-3.82-17.76,6.43-15.57,8.34-32.15,11.76-48.4a17,17,0,0,0-1-10c-4.85-13.19-10.07-26.32-13.66-39.87-2.44-9.22-3-19.08-3.32-28.69-.63-18-1-36-.53-53.91.5-17.39,0-35.11,5.59-51.84,3.88-11.62,9.34-22.74,14.52-33.89,4.19-9,8.37-18.17,13.73-26.5a222.3,222.3,0,0,1,19.89-26c8.41-9.59,17.84-18.28,26.49-27.66,15.57-16.9,34.75-28.35,55.83-36.61,18.67-7.31,38.32-11.33,58.21-13.28,19.68-1.94,39.5-2.46,59.25-3.85,22.25-1.56,44.42-.45,66,4.89A423.45,423.45,0,0,1,623,159.71c14.61,5.79,28.65,13.33,42.23,21.3,18.36,10.77,35.79,23.33,49.88,39.32,9,10.25,15.28,22.92,23.07,34.31,7.07,10.34,9.26,22.38,12.21,34.08,3.09,12.26,6.18,24.68,7.35,37.21,1.8,19.32,3,38.81,2.51,58.18a339.1,339.1,0,0,1-5.67,53c-2.12,11.47-7.65,22.31-11.58,33.45a10.33,10.33,0,0,0-.88,4.7c1.78,11.29,3.63,22.58,5.73,33.82a88.74,88.74,0,0,0,3.6,13c3.52,10,2.89,19.07-4.91,27.14s-15.11,16.36-22.61,24.6a16.07,16.07,0,0,0-3,3.95c-5,11.24-13.78,19-24.55,23.84-11.13,5-14.76,14.21-17.14,24.57-4.09,17.82-3.28,35.61.58,53.45a170.72,170.72,0,0,1,2.88,23.26c1.1,14.61-3.93,27.1-14,37.63-9.09,9.5-18.1,19.08-27.29,28.48-12.33,12.6-25.06,24.68-40.27,34-14.56,8.92-28.67,18.56-43,27.87-5.72,3.72-11.71,7.08-17.12,11.2-7.92,6-16.72,7.83-26.34,7.07-2.48-.2-5-.29-7.46-.43ZM703.4,324.38l2.16-.06c.43,3.3,1.47,6.65,1.15,9.88a142.09,142.09,0,0,1-3.29,21.18c-3.36,13.22-7.87,26.15-10.93,39.43-1.28,5.56-1.43,12.12.28,17.47,2.71,8.48,7.2,16.42,11.33,24.39,3.73,7.21,7.38,14.59,12.14,21.11,8.89,12.18,22.53,5.48,25.22-4.47,3.6-13.3,7.66-26.73,8.94-40.34,1.64-17.48.69-35.21.91-52.83.3-24.37-1.35-48.41-7.94-72.13-6.05-21.77-16-41.13-30.77-58.1-15.08-17.35-33.4-30.83-52.25-43.73-16.05-11-33.65-18.89-51.7-25.54a242.21,242.21,0,0,0-41.36-11.08c-14.7-2.6-29.79-4.51-44.67-4.2-24.91.51-49.79,2.93-74.67,4.71-15.1,1.08-30,3.11-44.49,7.95A199.41,199.41,0,0,0,340,192.66c-7.14,5.83-13.22,13-19.5,19.82a297.27,297.27,0,0,0-51.9,78.1c-3.58,7.83-7.08,16-8.45,24.44-2.16,13.2-2.81,26.69-3.51,40.09-1.42,27.35-.06,54.51,8.19,80.88,1.59,5.06,3.34,10.56,10.17,11.6,6.26,1,10-2.23,13.36-6.77,7.53-10.33,15.21-20.56,22.6-31,5.23-7.37,4.91-24.17-.61-29.77-11.77-11.94-15.87-26.18-13.35-42.53a27.29,27.29,0,0,1,1.73-4.9L300,333c0,2.31-.41,4.72.08,6.93,1.49,6.71,2.33,13.83,5.24,19.92,6.13,12.85,14.46,24.63,18.64,38.43a14.54,14.54,0,0,1,.26,5.35c-.76,8.6-7.64,13.73-11.75,20.43-8.82,14.4-19,28.17-22.32,45.25-2.66,13.77-3.74,27.55,4.56,40,4.57,6.88,9.57,13.49,14.56,20.09,2.65,3.51,2.4,6.63-1.56,8.4a84.07,84.07,0,0,1-13.56,5c-5.64,1.42-11.32,1-16.09-2.92-1.26-1-2-2.72-3-4.11,1.67-.67,3.41-2.06,5-1.89,5.55.61,9.57-1.7,13.06-5.34l-12.67-23.94a2.52,2.52,0,0,0-.3-.4c-2.49-3-4.77-2.67-6.2,1.05-.53,1.39-.66,2.93-1.13,4.35-2.79,8.45-5.42,17-8.51,25.3-2.52,6.81-2.75,13.31,2.63,18.57,7.12,7,14.88,13.25,22.18,20,8.62,8,17.4,15.88,25.44,24.45,5,5.31,10.53,8.83,17.57,8.92,11.77.16,23.58,0,35.32-.86,6-.41,9.84,1.59,13,6.24a88.36,88.36,0,0,1,15.2,39.64c.35,2.89.93,6.86,2.87,8.2a28.44,28.44,0,0,0,13,5.05c3.42.31,6.16.1,7.55,3.53,5.57-1.43,5.95-1.24,8.51,3.73,2.59-.62,5.15-2,7.42-1.57s4.27,2.52,6.66,4.07c1.55-3.25,3.74-6.72,8.13-4.22,3.2,1.83,5.83,4.66,8.72,7,8-5.67,8.33-5.65,17.53,1.18,3.76-2.7,8.06-4.55,12.44-2.09,3.75,2.1,6.93,5.22,9.55,7.26,4.3-2.49,8.46-5.93,13.24-7.42,5.52-1.73,10.05,1.78,13,5.48,3.48-2.42,6.34-5.82,9.62-6.29,3.11-.44,6.66,2.2,9.08,3.12,2-3.16,3.66-7.63,6.84-10.18,4.8-3.85,7.63,2.12,10.72,4,0,0,2.72-5.05,3-5.52,1.15-2.13,2.77-3.74,4.59-1.63,2.18,2.52,4.08,5.36,6.12,8-.55-.71,3.34-5,4-5.43,2.72-1.79,5.17.62,7.66,2,6.77-7.13,6.77-7.13,13.16-4.29.71-3.13,2.15-6.1,1.88-8.91-1.53-16.31-.92-32.08,6.69-47.22,4.78-9.5,11.37-15.2,23.61-10.07,16.38,6.86,32.56,4.9,48.73-.45a82.53,82.53,0,0,0,13.37-5.41c8.2-4.43,13.58-11.43,19.07-19.07,8-11.12,18.29-20.59,27.86-30.53,5.63-5.85,8.37-12,5.87-20.27s-4.08-17.12-6.2-25.66a11.55,11.55,0,0,0-2.24-4.36c-2.29-2.81-5.53-2.92-6.89.23a234.7,234.7,0,0,0-9.85,26.43c-1.39,4.71.65,6.35,5.64,6a85.87,85.87,0,0,0,9.17-1.67c-.3,5.23-3.92,7.28-7.77,8.31-8.08,2.17-16.29,3.91-24.51,5.54-2.78.55-5-.82-5-4.06a27.35,27.35,0,0,1,.87-6.82c2.45-8.93,6.25-17.68,7.31-26.76,1.16-9.91-.18-20.11-.41-30.18-.22-9.45-3.47-17.83-8.73-25.59-3.64-5.37-7-10.94-10.52-16.37-5.55-8.46-9.5-17.34-6.06-27.65,2.42-7.24,4.82-14.59,8.25-21.38,8.3-16.42,13.33-33.56,13.64-52A23.55,23.55,0,0,1,703.4,324.38ZM435,726c-3.71.28-7.58,1.67-8.77.45-3.93-4-8.55-5.69-13.65-7.36-2.65-.87-4.13-5.07-6.8-6.18-7.37-3.07-9-10.64-13.59-15.87-3.75-4.29-6.8-9.18-10.21-13.78-5.61-7.58-12-14.68-16.68-22.81-7.07-12.4-9.59-26.47-12-40.41-.78-4.45-4.58-8-8.28-7.6-6.37.69-12.75,1.4-19.13,2-4.08.37-6,2.54-5.56,6.53.64,5.77,1.33,11.54,1.87,17.32,1.62,17.2.75,34.19-3.91,50.94-.77,2.75-1.06,6.27,0,8.77,3.41,8.05,6.85,16.25,11.61,23.53,4.86,7.42,11.05,14,17.1,20.6,9.11,9.89,18.36,19.67,28,29.07,10,9.76,20.4,19.09,30.77,28.45,12.09,10.91,24.1,21.93,36.65,32.29a28.53,28.53,0,0,0,13.92,5.88c23.25,2.93,46.53,1.43,69.75-1,2.17-.22,4.36-1.5,6.27-2.72,6.86-4.38,13.08-10.24,20.47-13.22C581.7,809.27,605.48,790,628.9,770.3c11.39-9.57,21.29-21,31.38-32a78.49,78.49,0,0,0,12-17c6.13-12,3.82-25.13,1-37.2-5.25-22.11-5.78-43.73.86-65.44,1.26-4.11-.31-6.29-3.92-7s-7.25-.52-10.89-.75c-8.37-.53-11.58,1.75-13.63,9.95-5.21,20.83-13.35,40.32-25.7,58-5.46,7.83-10.39,16-15.66,24a22.56,22.56,0,0,1-4.2,4.85c-4.56,3.82-9.65,7.08-13.84,11.26-3.15,3.15-5.84,5.15-10.71,5.59-3.68.33-6.77,5.13-10.62,6.31-2.82.87-4.83,1.35-6.65,4-1.21,1.74-4.41,3.45-6.32,3.09-4.83-.93-7.72,1.93-11.33,3.82-2,1.06-4.75.77-7.15,1.1-2.09.28-4.29.25-6.23,1-1.59.58-22,4.59-23.59,4a9.46,9.46,0,0,1-3.12-1.54c-2.48-2.26-4.92-1.81-7.09.15-3.73,3.36-7.34,2.19-10.17-.69-2.53-2.57-4.7-2.81-7.43-1s-5.12,1.21-7.59-1a6.2,6.2,0,0,0-5-1.39c-4.75,1.41-8.3.53-11.46-3.44-1.31-1.64-4.07-3.66-5.59-3.27-3.74,1-5.3-1.17-7-3.35S436.05,727.6,435,726Zm62.89-23.36c-1.6-5.34-3-10.73-4.86-16-1.3-3.71-4-5.95-8.26-6s-6.81,2.14-8.89,5.4c-3.78,5.94-3.47,12.66-3.58,19.27-.07,4.22,2.41,5.88,6.38,5.72l10.94-.46C496.83,710.37,496.92,710.27,497.86,702.67Zm12.35,8.81A57,57,0,0,0,521,709.79c1.33-.31,3.41-2.4,3.25-3.34-1.27-7.08-2.12-14.46-4.87-21-3-7.09-9.28-6.73-13.53-.19-4,6.14-4.38,13-4.89,20C500.64,710.41,505.19,711.63,510.21,711.48ZM547,693.79c-.17,2.84-.26,5.69-.3,8.54-.06,4.38,3.56,5,6.52,5.38,1.49.17,4-1.41,4.75-2.87,5.07-9.25,2.56-18.73,0-28-.68-2.45-3.79-5.38-6.23-3.36s-2.94,6.16-3.45,9.1A102.49,102.49,0,0,0,547,693.79Zm-92.65-6a20.69,20.69,0,0,0-2.67-9.31c-1.9-3.25-5-3.23-6.64,0-3.77,7.28-6.91,14.92-3.69,23.34.93,2.44,1.22,6.11,5.28,5.38,3.8-.69,7-2.34,7.25-6.94C454.11,696.07,454.64,691.87,454.37,687.8Zm46.17,30.35c-.94,1.24-.6,3.3-.7,5.16-.16,2.82-.32,5.63-.3,8.46s.06,5.78,1.2,8.16,3.63,3.9,5.52,5.81c1.82-2.41,4.44-4.57,5.28-7.29,1.22-3.9,1.15-8.2,1.63-12.34.41-3.51,1-8.08-3.33-9a20.94,20.94,0,0,0-7.46,0A2.82,2.82,0,0,0,500.54,718.15Zm42.73-22.08c-.42-2.26-.78-6.62-2.15-10.65a9.19,9.19,0,0,0-5-4.91c-1-.37-3.43,2-4.62,3.58-4.51,6-4.6,13-3.45,20,.16,1,2.09,2,3.39,2.37s2.57-.44,3.88-.5C543.13,705.59,543.13,705.62,543.27,696.07ZM497.4,727.71a64.59,64.59,0,0,0,.3-8,5.09,5.09,0,0,0-.41-2.28c-.59-1.13-2.56-1.57-3.74-1.56-3.72.06-9.69-1.6-10,3.48-.49,7.22.84,14.76,2.57,21.88,1.07,4.38,5,4.78,7.18.74A37.68,37.68,0,0,0,497.4,727.71Zm-26.16-40.09c.39-3.87-.24-8.31-4.3-8.75-2-.21-5.39,3.89-6.46,6.68-1.8,4.72-2.48,9.93-3.17,15-.27,2,.13,5.63,1.17,6,2.93,1.11,6.34,1,9.58,1.13.46,0,1.3-1.45,1.4-2.3C470.14,699.49,470.67,693.55,471.24,687.62ZM450,721.68c1.53,4.67,3,9.38,4.63,14,1.09,3,3.63,5,6.54,3.59a8,8,0,0,0,3.63-5.94A113.67,113.67,0,0,0,463.44,717a4.5,4.5,0,0,0-2.33-2.8C454.1,710.85,451,713.07,450,721.68Zm18.27-2.83c-5,3.52.23,14.5,2,18.8,1,2.38,2.48,5.71,5.61,4.06,2.23-1.18,4.69-4.24,4.82-6.59a77.07,77.07,0,0,0-.68-12.41c-.34-3.22-1.45-5.71-5.23-5.76a15,15,0,0,0-5.38,1.28A5.19,5.19,0,0,0,468.3,718.84Zm48.59,11.26c0,2.14-.4,4.88.14,7.41.39,1.82,1.88,4.55,3.17,4.72,1.53.21,4.29-1.52,4.91-3.06a66,66,0,0,0,4.53-15.09c.74-5.12-1.28-6.17-6.34-6.38-4.63-.2-6.35,1.48-6.06,5.93A56.32,56.32,0,0,1,516.89,730.11Zm27-13.31c-.15-.42-.41-2-.82-2.07a22,22,0,0,0-7.22.12c-.87.22-1.47,2.49-1.76,3.91-.75,3.72-1.35,7.48-1.82,11.25a16.68,16.68,0,0,0,0,5.84,4.43,4.43,0,0,0,2.73,2.9,5.41,5.41,0,0,0,4.25-1.39,11.05,11.05,0,0,0,2.56-5.26C542.7,727.23,543.17,722.28,543.87,716.8Zm22-45.21-.17.12a3.5,3.5,0,0,0-.9,2.2,108.2,108.2,0,0,0-.75,16.75,18.55,18.55,0,0,0,.38,4.48c.44,1.73.62,2.34,2.14,2,1.91-.37,5.27-2.19,6.2-3.9,1.88-3.44.93-8.19-.18-11.71C572,679.91,568.12,670.2,565.82,671.59ZM438.94,682.83a4.09,4.09,0,0,0,0-.79,17.15,17.15,0,0,0-1-4.82c-.55-1.47-1.54-3-3.1-3.22a4.06,4.06,0,0,0-2.95,1.21c-4.06,3.5-5,11-5.6,16.06-.16,1.42,2,4.44,3.09,4.41,2.27-.07,5.57-1,6.51-2.73a19.8,19.8,0,0,0,1.84-5.55C438,686.15,438.75,684.27,438.94,682.83Zm9.92,28.52c-2-.16-4,0-5.8-.53-4-1.29-5.11,1.22-4.68,4a94.57,94.57,0,0,0,3.76,14.7c.34,1,3,2.38,3.73,2a5.8,5.8,0,0,0,2.85-4C449.07,722.3,448.86,717.06,448.86,711.35Zm107.33,7c-.3-2.15-1.16-5-3-5.5-1.34-.36-5.43,1.2-5.84,2.68-1.26,4.51-1.32,9.44-1.19,14.19,0,1.38,2.18,3.62,3.55,3.78s3.62-1.64,4.14-3.06c1.14-3.11,2.57-7.3,2.48-10.62A13.52,13.52,0,0,0,556.19,718.35Zm-119.26-7.22q0-.24,0-.48c.13-3.29-2-6-5.36-5.91-2,0-5.14,2.17-5.52,3.87a36.22,36.22,0,0,0-.27,12.14c.48,3.83,3.4,4.65,5.64,1.53C433.46,719.52,436.55,714.54,436.93,711.13Zm-23.19-12.65a2.33,2.33,0,0,0-.52.51,6.17,6.17,0,0,0-.89,2.18l-1.33,5a14,14,0,0,0-.64,3.89c.09,3.45,2.33,5.21,5.42,6.08a2.13,2.13,0,0,0,1.08.1c1.26-.31,3.53-2.43,4.18-3.51,1.7-2.81,3.94-6.88,2.27-10.19C422.14,700.29,416.29,696.68,413.75,698.48Zm145.18,20.65a16.91,16.91,0,0,0,1.29,5.67,3.48,3.48,0,0,0,.93,1.43c2.37,1.89,5.43-.75,6.23-2.93a50.26,50.26,0,0,0,2.56-11.59c.49-4.33-1.44-5.24-5.42-3.35C560.26,710.37,558.71,714.77,558.93,719.13Zm21.47-48.39c-.67,0-1.38.46-2.2,1.51a12.64,12.64,0,0,0-2.13,5.7c-.46,2.91-.1,5.89,0,8.81s1.92,4,4.22,3.42,6.09-2.16,6.11-3.35c.08-4.68-.2-9.65-3-13.59C582.38,671.76,581.44,670.72,580.4,670.73ZM404.23,706.17c2,.89,3.47-1.61,4.76-3.88,2.05-3.59,1.21-7.5-.67-11s-4.64-2.6-5.57.86a76.21,76.21,0,0,0-1.8,8.69,3.16,3.16,0,0,0,0,1.41,3.21,3.21,0,0,0,.51.88l1,1.33A4.89,4.89,0,0,0,404.23,706.17ZM591.59,695a1.93,1.93,0,0,0-.91-.35c-1.13-.12-2.07.86-2.68,1.81-3,4.58-2.72,10.36-1.08,15.36,1.78-1.11,3.46-2.49,5.3-3.61a3.8,3.8,0,0,0,1.09-.87,3.58,3.58,0,0,0,.53-2.06,29.82,29.82,0,0,0-.78-7.32,7,7,0,0,0-.67-2.07A2.78,2.78,0,0,0,591.59,695ZM423.5,672.17c-3.65,2.84-6.63,10.87-5.34,14.15a4.14,4.14,0,0,0,2.86,2.19c1,.11,3-.82,3.1-1.55C425,682.19,426.55,677.28,423.5,672.17Zm165.91,13.1a2.2,2.2,0,0,0,2.51,1c1.09-.34,3.42-2.93,3.38-4.08-.11-3.39-1.38-6.8-2.53-10.08a2.22,2.22,0,0,0-3.33-1c-2,1.21-1.11,4.47-1,6.33.14,2.25-.46,5.19.65,7.3A4.08,4.08,0,0,0,589.41,685.27ZM414.8,669a1.38,1.38,0,0,0-1.16-.16c-3.14.89-4.94,6.32-4.55,9.2a7.44,7.44,0,0,0,2.1,4.24c.67.68,2.22,1.94,3.23,1.9,1.82-.06,1.45-2,1.48-3.51a66.38,66.38,0,0,0-.58-10.49,1.9,1.9,0,0,0-.37-1.05Zm183.63,35.08c3.59-3.53,5.33-10.7,3.2-14.17-.47-.77-3.34-1.16-4-.55C595.6,691.37,596.24,701,598.42,704.12Zm1.41-37.78c-2.67,5-1.92,9.78-1.38,14.72C604.85,679.59,605.5,672.93,599.83,666.34ZM405,665c-5.71,3-5.73,6.86-5.08,10.37.3,1.63,2.6,2.89,4,4.31l1.86-1Zm-8.3,18.59c-2,5.18-.89,12.32,2.4,15C401.61,690.42,400.7,684.74,396.71,683.62Z"/><path class="cls-1" d="M572.2,716c0-.26-.05-.52-.07-.76-.28-4.23,1.42-8.7,3.44-12.34s5.39-2.68,6.63,1.37c1.74,5.69-1,10.35-3.69,14.9-.76,1.31-3.24,1.36-4.39.68S572.38,717.45,572.2,716Z"/><path d="M383.62,425.08c14.6,0,29.21-.36,43.79.16a71.89,71.89,0,0,1,20.41,3.56c12.85,4.39,16.81,15.64,18.75,27.7,2.27,14.09-5.32,24.05-13.83,34.13-11.63,13.78-27.59,21.06-42.15,30.55-9.51,6.2-18.87,12.54-30.3,14.64-3.22.59-6.69,1.61-9.75,1-9.55-2-19.21-3.93-28.34-7.23-7.77-2.82-13.13-8.81-16.92-16.69-5.9-12.26-8.42-24.72-6.43-38.16.36-2.44.05-5,.31-7.43,1.53-14.74,11.56-23.63,22.73-31C354.37,428,368.6,424.57,383.62,425.08Z"/><path d="M681.68,482.56c-.87,9.64-1.29,18-2.43,26.18-2.31,16.71-16.7,29.75-36.59,26.93a115.11,115.11,0,0,0-22.77-1.2c-11.55.69-21.71-3.59-31.46-8.32-10-4.83-19.22-11.22-28.43-17.45-8.44-5.72-12.83-14.85-14.49-24.25-1.85-10.5-2.94-21.76-1.16-32.14,2.94-17.21,15.32-26.66,31.75-20.69,19.87,7.22,39.66,5.18,59.57,5.22,10,0,20,.69,28.75,4.94,7.49,3.62,13.91,9.5,14.51,19.36C679.4,468.7,680.84,476.22,681.68,482.56Z"/><path d="M493.56,517.65c5.24,3.85,9.8,8.64,15.45.87,1.33,2.72,2.34,4.5,3.1,6.39a38.31,38.31,0,0,1,1.84,5.7c4.16,17.94,13.08,34,20.16,50.77,5.21,12.34,4,26.17-5,35.29-4.54,4.57-10.84,5-16.91,4.17-10.09-1.44-10.47-2-12.27-12.29a67.17,67.17,0,0,1-.8-7.93,63.31,63.31,0,0,0-.44-7.26c-1.39,6.59-2.9,13.16-4.15,19.77-1.54,8.11-6.66,9.6-15.43,8.64-16.61-1.83-21.24-12.65-19.32-29.9,1.5-13.48,9.75-23.33,17.32-33.68,6.07-8.29,11.16-17.13,12.57-27.7C490.21,526.35,492.07,522.39,493.56,517.65Z"/></svg>